<svg width="80" height="80" viewBox="0 0 80 80" fill="none" xmlns="http://www.w3.org/2000/svg">
<path fill-rule="evenodd" clip-rule="evenodd" d="M24.8833 3.55333C28.7933 3.37333 30.04 3.33333 40 3.33333C49.96 3.33333 51.2067 3.37666 55.1133 3.55333C59.02 3.72999 61.6867 4.35333 64.02 5.25666C66.4633 6.17999 68.68 7.62333 70.5133 9.48999C72.38 11.32 73.82 13.5333 74.74 15.98C75.6467 18.3133 76.2667 20.98 76.4467 24.88C76.6267 28.7967 76.6667 30.0433 76.6667 40C76.6667 49.96 76.6233 51.2067 76.4467 55.1167C76.27 59.0167 75.6467 61.6833 74.74 64.0167C73.82 66.4636 72.3776 68.6807 70.5133 70.5133C68.68 72.38 66.4633 73.82 64.02 74.74C61.6867 75.6467 59.02 76.2667 55.12 76.4467C51.2067 76.6267 49.96 76.6667 40 76.6667C30.04 76.6667 28.7933 76.6233 24.8833 76.4467C20.9833 76.27 18.3167 75.6467 15.9833 74.74C13.5364 73.8199 11.3194 72.3775 9.48666 70.5133C7.62126 68.6822 6.17771 66.4663 5.25666 64.02C4.35333 61.6867 3.73333 59.02 3.55333 55.12C3.37333 51.2033 3.33333 49.9567 3.33333 40C3.33333 30.04 3.37666 28.7933 3.55333 24.8867C3.72999 20.98 4.35333 18.3133 5.25666 15.98C6.17907 13.5336 7.62372 11.3177 9.48999 9.48666C11.3201 7.62167 13.5349 6.17814 15.98 5.25666C18.3133 4.35333 20.98 3.73333 24.88 3.55333H24.8833ZM54.8167 10.1533C50.95 9.97666 49.79 9.93999 40 9.93999C30.21 9.93999 29.05 9.97666 25.1833 10.1533C21.6067 10.3167 19.6667 10.9133 18.3733 11.4167C16.6633 12.0833 15.44 12.8733 14.1567 14.1567C12.9401 15.3402 12.0039 16.7809 11.4167 18.3733C10.9133 19.6667 10.3167 21.6067 10.1533 25.1833C9.97666 29.05 9.93999 30.21 9.93999 40C9.93999 49.79 9.97666 50.95 10.1533 54.8167C10.3167 58.3933 10.9133 60.3333 11.4167 61.6267C12.0033 63.2167 12.94 64.66 14.1567 65.8433C15.34 67.06 16.7833 67.9967 18.3733 68.5833C19.6667 69.0867 21.6067 69.6833 25.1833 69.8467C29.05 70.0233 30.2067 70.06 40 70.06C49.7933 70.06 50.95 70.0233 54.8167 69.8467C58.3933 69.6833 60.3333 69.0867 61.6267 68.5833C63.3367 67.9167 64.56 67.1267 65.8433 65.8433C67.06 64.66 67.9967 63.2167 68.5833 61.6267C69.0867 60.3333 69.6833 58.3933 69.8467 54.8167C70.0233 50.95 70.06 49.79 70.06 40C70.06 30.21 70.0233 29.05 69.8467 25.1833C69.6833 21.6067 69.0867 19.6667 68.5833 18.3733C67.9167 16.6633 67.1267 15.44 65.8433 14.1567C64.6597 12.9402 63.219 12.004 61.6267 11.4167C60.3333 10.9133 58.3933 10.3167 54.8167 10.1533ZM35.3167 51.3033C37.9322 52.3921 40.8446 52.539 43.5564 51.7191C46.2683 50.8991 48.6113 49.163 50.1854 46.8075C51.7594 44.4519 52.4668 41.6229 52.1868 38.8037C51.9068 35.9845 50.6567 33.3499 48.65 31.35C47.3708 30.0716 45.824 29.0927 44.1211 28.4838C42.4182 27.8749 40.6014 27.6512 38.8016 27.8287C37.0019 28.0062 35.2638 28.5806 33.7127 29.5104C32.1615 30.4403 30.8358 31.7025 29.831 33.2062C28.8262 34.7099 28.1673 36.4176 27.9017 38.2065C27.6361 39.9954 27.7705 41.821 28.2951 43.5517C28.8198 45.2825 29.7216 46.8754 30.9357 48.2157C32.1499 49.5561 33.6461 50.6106 35.3167 51.3033ZM26.6733 26.6733C28.4234 24.9232 30.5011 23.535 32.7877 22.5879C35.0742 21.6407 37.525 21.1532 40 21.1532C42.475 21.1532 44.9257 21.6407 47.2123 22.5879C49.4989 23.535 51.5766 24.9232 53.3267 26.6733C55.0767 28.4234 56.465 30.5011 57.4121 32.7877C58.3593 35.0742 58.8467 37.525 58.8467 40C58.8467 42.475 58.3593 44.9257 57.4121 47.2123C56.465 49.4989 55.0767 51.5766 53.3267 53.3267C49.7922 56.8611 44.9985 58.8467 40 58.8467C35.0015 58.8467 30.2078 56.8611 26.6733 53.3267C23.1389 49.7922 21.1532 44.9985 21.1532 40C21.1532 35.0015 23.1389 30.2078 26.6733 26.6733ZM63.0267 23.96C63.4603 23.5509 63.8075 23.0589 64.0477 22.5132C64.2878 21.9676 64.416 21.3792 64.4247 20.7831C64.4334 20.187 64.3224 19.5952 64.0983 19.0427C63.8741 18.4902 63.5414 17.9884 63.1199 17.5668C62.6983 17.1452 62.1964 16.8125 61.644 16.5884C61.0915 16.3643 60.4997 16.2532 59.9036 16.2619C59.3074 16.2706 58.7191 16.3988 58.1734 16.639C57.6277 16.8791 57.1358 17.2263 56.7267 17.66C55.931 18.5034 55.4954 19.6237 55.5123 20.7831C55.5292 21.9425 55.9973 23.0496 56.8172 23.8695C57.6371 24.6893 58.7442 25.1574 59.9036 25.1743C61.0629 25.1912 62.1832 24.7556 63.0267 23.96Z" fill="#9747FF"/>
</svg>
