<svg width="80" height="80" viewBox="0 0 80 80" fill="none" xmlns="http://www.w3.org/2000/svg">
<g clip-path="url(#clip0_203_26)">
<path d="M14.87 14.0225C17.345 16.04 18.2825 15.8975 22.955 15.585L67.005 12.9425C67.9425 12.9425 67.1625 12.005 66.8475 11.8475L59.53 6.56C58.1375 5.465 56.2625 4.23 52.68 4.5275L10.0375 7.6525C8.475 7.795 8.1625 8.5775 8.7875 9.2025L14.87 14.0225ZM17.5125 24.2975V70.6375C17.5125 73.125 18.75 74.0625 21.55 73.905L69.9625 71.105C72.7625 70.9475 73.0875 69.2425 73.0875 67.2125V21.185C73.0875 19.1525 72.305 18.0725 70.5875 18.23L20.0025 21.185C18.1275 21.3425 17.515 22.265 17.515 24.285L17.5125 24.2975ZM65.3 26.77C65.6125 28.1775 65.3 29.57 63.8925 29.74L61.5625 30.21V64.415C59.53 65.51 57.67 66.135 56.12 66.135C53.62 66.135 52.995 65.3525 51.1325 63.0225L35.8725 39.065V62.2425L40.7025 63.3375C40.7025 63.3375 40.7025 66.1375 36.81 66.1375L26.0675 66.7625C25.755 66.1375 26.0675 64.575 27.1625 64.275L29.9625 63.4925V32.855L26.07 32.5425C25.7575 31.135 26.54 29.1175 28.7125 28.9625L40.235 28.18L56.12 52.45V30.9775L52.07 30.5075C51.7575 28.8025 52.995 27.5525 54.5575 27.4075L65.3 26.77ZM6.4575 3.45L50.82 0.182497C56.2625 -0.287503 57.67 0.0249974 61.0925 2.5125L75.26 12.4725C77.59 14.1775 78.3725 14.6475 78.3725 16.51V71.1075C78.3725 74.5325 77.1225 76.55 72.7725 76.8625L21.235 79.975C17.98 80.1325 16.4175 79.6625 14.6975 77.4875L4.2675 63.945C2.405 61.4575 1.625 59.595 1.625 57.4225V8.895C1.625 6.095 2.875 3.765 6.455 3.4525L6.4575 3.45Z" fill="black"/>
</g>
<defs>
<clipPath id="clip0_203_26">
<rect width="80" height="80" fill="white"/>
</clipPath>
</defs>
</svg>
