<svg width="80" height="80" viewBox="0 0 80 80" fill="none" xmlns="http://www.w3.org/2000/svg">
<path d="M40 80C62.0914 80 80 62.0914 80 40C80 17.9086 62.0914 0 40 0C17.9086 0 0 17.9086 0 40C0 62.0914 17.9086 80 40 80Z" fill="#FF4500"/>
<path d="M66.6094 40.3812C66.6094 37.1387 63.9872 34.5634 60.7916 34.5634C59.282 34.5614 57.83 35.1423 56.7384 36.185C52.7328 33.3234 47.2484 31.4641 41.1447 31.2256L43.8147 18.7316L52.4937 20.5909C52.5897 22.7847 54.4012 24.5494 56.6431 24.5494C58.9319 24.5494 60.7916 22.69 60.7916 20.4C60.7916 18.1112 58.9322 16.2516 56.6431 16.2516C55.0219 16.2516 53.5906 17.2053 52.9231 18.5884L43.2431 16.5378C42.9569 16.4897 42.6706 16.5378 42.4797 16.6809C42.2412 16.8241 42.0984 17.0622 42.0512 17.3484L39.0937 31.2728C32.8947 31.4641 27.315 33.3234 23.2619 36.2328C22.1702 35.1901 20.718 34.6093 19.2084 34.6116C15.9656 34.6116 13.3906 37.2337 13.3906 40.4294C13.3906 42.8134 14.8209 44.8159 16.8244 45.7228C16.7271 46.3059 16.6792 46.8961 16.6813 47.4872C16.6813 56.4516 27.125 63.7484 40.0003 63.7484C52.8759 63.7484 63.3197 56.4997 63.3197 47.4872C63.3193 46.8962 63.2715 46.3061 63.1766 45.7228C65.1791 44.8159 66.6094 42.7653 66.6094 40.3812ZM26.6475 44.5297C26.6475 42.2409 28.5069 40.3812 30.7969 40.3812C33.0856 40.3812 34.9453 42.2406 34.9453 44.5297C34.9453 46.8187 33.0859 48.6791 30.7969 48.6791C28.5072 48.7259 26.6475 46.8187 26.6475 44.5297ZM49.8716 55.5456C47.0103 58.4072 41.5737 58.5981 40.0003 58.5981C38.3791 58.5981 32.9428 58.3591 30.1284 55.5456C29.7 55.1166 29.7 54.4487 30.1284 54.0197C30.5578 53.5912 31.2253 53.5912 31.6547 54.0197C33.4672 55.8322 37.2822 56.4516 40.0003 56.4516C42.7188 56.4516 46.5809 55.8319 48.3453 54.0197C48.7747 53.5912 49.4422 53.5912 49.8716 54.0197C50.2528 54.4487 50.2528 55.1166 49.8716 55.5456ZM49.1081 48.7262C46.8191 48.7262 44.9597 46.8669 44.9597 44.5778C44.9597 42.2887 46.8191 40.4294 49.1081 40.4294C51.3978 40.4294 53.2572 42.2887 53.2572 44.5778C53.2572 46.8184 51.3978 48.7262 49.1081 48.7262Z" fill="white"/>
</svg>
