<svg width="80" height="80" viewBox="0 0 80 80" fill="none" xmlns="http://www.w3.org/2000/svg">
<path d="M40 0C17.9087 0 0 17.9091 0 40C0 62.0925 17.9091 80 40 80C62.0928 80 80 62.0925 80 40C80 17.9106 62.0928 0.0021875 39.9994 0.0021875L39.9997 0.0003125L40 0ZM58.3434 57.6919C57.6269 58.8669 56.0887 59.2394 54.9137 58.5181C45.5222 52.7816 33.6997 51.4822 19.7763 54.6634C19.1315 54.8102 18.4549 54.6948 17.8951 54.3428C17.3354 53.9908 16.9383 53.4309 16.7913 52.7863C16.718 52.4671 16.7084 52.1366 16.763 51.8138C16.8176 51.4909 16.9353 51.182 17.1095 50.9047C17.2837 50.6274 17.5108 50.3871 17.7779 50.1977C18.0451 50.0084 18.3469 49.8735 18.6663 49.8009C33.9037 46.3197 46.9734 47.8184 57.5172 54.2622C58.6922 54.9834 59.0647 56.5169 58.3434 57.6919ZM63.2394 46.8003C62.3363 48.2675 60.4162 48.7309 58.95 47.8281C48.1981 41.2194 31.8084 39.3053 19.0912 43.1656C17.4419 43.6637 15.7 42.7344 15.1994 41.0878C14.7025 39.4384 15.6325 37.6997 17.2791 37.1984C31.8056 32.7903 49.865 34.9256 62.2125 42.5131C63.6787 43.4163 64.1422 45.3362 63.2394 46.8006V46.8003ZM63.6597 35.4588C50.7678 27.8013 29.4981 27.0969 17.1897 30.8331C15.2131 31.4325 13.1228 30.3166 12.5241 28.34C11.925 26.3625 13.0397 24.2738 15.0178 23.6728C29.1469 19.3834 52.6356 20.2125 67.4778 29.0238C69.2597 30.0788 69.8422 32.375 68.7866 34.1503C67.7359 35.9284 65.4334 36.5144 63.6616 35.4588H63.6597Z" fill="#1ED760"/>
</svg>
