<svg width="80" height="66" viewBox="0 0 80 66" fill="none" xmlns="http://www.w3.org/2000/svg">
<path d="M80 7.95313C77.0043 9.28024 73.8268 10.1514 70.5731 10.5375C73.9622 8.50626 76.5644 5.28969 77.7897 1.45719C74.568 3.36902 71.0431 4.71603 67.3675 5.44001C64.3734 2.25032 60.1081 0.256882 55.3872 0.256882C46.3228 0.256882 38.9738 7.60563 38.9738 16.6694C38.9738 17.9559 39.1191 19.2084 39.3988 20.41C25.7581 19.7253 13.6644 13.1913 5.56906 3.26126C4.15656 5.68532 3.34719 8.50501 3.34719 11.5125C3.34719 17.2069 6.245 22.2303 10.6488 25.1738C8.04234 25.0921 5.49328 24.3882 3.21438 23.1206C3.21344 23.1894 3.21344 23.2581 3.21344 23.3272C3.21344 31.2794 8.87094 37.9131 16.3791 39.4209C13.9621 40.0783 11.427 40.1745 8.96719 39.7022C11.0556 46.2228 17.1172 50.9678 24.2991 51.1006C18.6819 55.5025 11.6047 58.1266 3.91531 58.1266C2.59031 58.1266 1.28406 58.0488 0 57.8972C7.26344 62.5541 15.8906 65.2713 25.1594 65.2713C55.3491 65.2713 71.8575 40.2616 71.8575 18.5728C71.8575 17.8609 71.8419 17.1531 71.81 16.4494C75.0232 14.1265 77.7966 11.2494 80 7.95313Z" fill="#55ACEE"/>
</svg>
