<svg width="80" height="57" viewBox="0 0 80 57" fill="none" xmlns="http://www.w3.org/2000/svg">
<path d="M78.233 8.77344C77.7741 7.07767 76.879 5.5317 75.6369 4.28946C74.3947 3.04722 72.8487 2.15207 71.153 1.69313C64.9449 0 39.9593 0 39.9593 0C39.9593 0 14.9724 0.0512499 8.76425 1.74437C7.06847 2.20334 5.52251 3.09855 4.28033 4.34085C3.03814 5.58314 2.14307 7.12918 1.68425 8.825C-0.193561 19.8556 -0.921998 36.6637 1.73581 47.2531C2.19468 48.9489 3.08977 50.4949 4.33195 51.7371C5.57414 52.9793 7.12007 53.8745 8.81581 54.3334C15.0239 56.0266 40.0102 56.0266 40.0102 56.0266C40.0102 56.0266 64.9961 56.0266 71.2039 54.3334C72.8997 53.8745 74.4457 52.9794 75.688 51.7372C76.9302 50.4949 77.8254 48.9489 78.2843 47.2531C80.2649 36.2069 80.8752 19.4094 78.233 8.77375V8.77344Z" fill="#FF0000"/>
<path d="M32.0066 40.0187L52.7341 28.0131L32.0066 16.0075V40.0187Z" fill="white"/>
</svg>
